<mxfile host="Electron" modified="2024-07-20T19:50:48.119Z" agent="Mozilla/5.0 (Windows NT 10.0; Win64; x64) AppleWebKit/537.36 (KHTML, like Gecko) draw.io/24.4.8 Chrome/124.0.6367.207 Electron/30.0.6 Safari/537.36" etag="gTX-wiUiRZcXHtjMwg3m" version="24.4.8" type="device">
  <diagram name="Page-1" id="KZN-zyBD-0XipZeYQRDT">
    <mxGraphModel dx="479" dy="277" grid="1" gridSize="10" guides="1" tooltips="1" connect="1" arrows="1" fold="1" page="1" pageScale="1" pageWidth="500" pageHeight="200" math="0" shadow="0">
      <root>
        <mxCell id="0" />
        <mxCell id="1" parent="0" />
        <mxCell id="wwjlJXxgG5uiKnBPVhm0-95" value="" style="group" vertex="1" connectable="0" parent="1">
          <mxGeometry x="9" y="78" width="482.6" height="44.46000000000001" as="geometry" />
        </mxCell>
        <mxCell id="PZP4gdgeWaH-fIwLRfgN-368" value="" style="rounded=0;whiteSpace=wrap;html=1;fillColor=#111111;strokeColor=#222222;glass=0;aspect=fixed;container=0;" parent="wwjlJXxgG5uiKnBPVhm0-95" vertex="1">
          <mxGeometry width="482.6" height="44.45" as="geometry" />
        </mxCell>
        <mxCell id="PZP4gdgeWaH-fIwLRfgN-369" value="" style="rounded=0;whiteSpace=wrap;html=1;fillColor=#111111;strokeColor=#222222;glass=0;aspect=fixed;container=0;" parent="wwjlJXxgG5uiKnBPVhm0-95" vertex="1">
          <mxGeometry x="18" y="0.010000000000005116" width="446.6" height="44.45" as="geometry" />
        </mxCell>
        <mxCell id="8-Y4Epgb5bJB_0jupaL6-1" value="" style="group;strokeColor=#222222;rounded=1;arcSize=50;container=0;" parent="wwjlJXxgG5uiKnBPVhm0-95" vertex="1" connectable="0">
          <mxGeometry x="468.6" y="3" width="10" height="6" as="geometry" />
        </mxCell>
        <mxCell id="8-Y4Epgb5bJB_0jupaL6-2" value="" style="group;rounded=1;strokeColor=#222222;arcSize=50;container=0;" parent="wwjlJXxgG5uiKnBPVhm0-95" vertex="1" connectable="0">
          <mxGeometry x="468.6" y="35.45" width="10" height="6" as="geometry" />
        </mxCell>
        <mxCell id="8-Y4Epgb5bJB_0jupaL6-3" value="" style="group;rounded=1;strokeColor=#222222;arcSize=50;container=0;" parent="wwjlJXxgG5uiKnBPVhm0-95" vertex="1" connectable="0">
          <mxGeometry x="4" y="3" width="10" height="6" as="geometry" />
        </mxCell>
        <mxCell id="8-Y4Epgb5bJB_0jupaL6-4" value="" style="group;strokeColor=#222222;rounded=1;arcSize=50;container=0;" parent="wwjlJXxgG5uiKnBPVhm0-95" vertex="1" connectable="0">
          <mxGeometry x="4" y="35.45" width="10" height="6" as="geometry" />
        </mxCell>
        <mxCell id="dPUykWXNvH8D_2w4ptwh-180" value="13" style="text;html=1;align=center;verticalAlign=middle;whiteSpace=wrap;rounded=0;fontSize=3;container=0;" parent="wwjlJXxgG5uiKnBPVhm0-95" vertex="1">
          <mxGeometry x="391.6" y="36.95" width="12" height="5" as="geometry" />
        </mxCell>
        <mxCell id="dPUykWXNvH8D_2w4ptwh-181" value="14" style="text;html=1;align=center;verticalAlign=middle;whiteSpace=wrap;rounded=0;fontSize=3;container=0;" parent="wwjlJXxgG5uiKnBPVhm0-95" vertex="1">
          <mxGeometry x="404.6" y="36.95" width="12" height="5" as="geometry" />
        </mxCell>
        <mxCell id="dPUykWXNvH8D_2w4ptwh-1" value="" style="rounded=0;whiteSpace=wrap;html=1;strokeColor=#000000;fillColor=#BFBFBF;fontColor=#ffffff;strokeWidth=0.1;fontSize=3;fontFamily=Teko Light;align=center;verticalAlign=middle;container=0;" parent="wwjlJXxgG5uiKnBPVhm0-95" vertex="1">
          <mxGeometry x="389.6" y="22.230000000000004" width="55" height="14" as="geometry" />
        </mxCell>
        <mxCell id="dPUykWXNvH8D_2w4ptwh-37" value="" style="rounded=0;whiteSpace=wrap;html=1;strokeColor=none;fillColor=#222222;fontColor=#ffffff;strokeWidth=0.1;fontSize=3;fontFamily=Teko Light;container=0;" parent="wwjlJXxgG5uiKnBPVhm0-95" vertex="1">
          <mxGeometry x="391.59857142857146" y="23.227576744186067" width="12" height="5" as="geometry" />
        </mxCell>
        <mxCell id="dPUykWXNvH8D_2w4ptwh-10" value="" style="rounded=0;whiteSpace=wrap;html=1;strokeColor=none;fillColor=#000000;fontColor=#ffffff;strokeWidth=0.1;fontSize=3;fontFamily=Teko Light;container=0;" parent="wwjlJXxgG5uiKnBPVhm0-95" vertex="1">
          <mxGeometry x="391.5971428571429" y="27.231074995060638" width="12" height="7" as="geometry" />
        </mxCell>
        <mxCell id="dPUykWXNvH8D_2w4ptwh-11" value="" style="rounded=0;whiteSpace=wrap;html=1;strokeColor=none;fillColor=#000000;fontColor=#ffffff;strokeWidth=0.1;fontSize=3;fontFamily=Teko Light;container=0;" parent="wwjlJXxgG5uiKnBPVhm0-95" vertex="1">
          <mxGeometry x="395.1" y="24.230000000000004" width="5" height="4" as="geometry" />
        </mxCell>
        <mxCell id="dPUykWXNvH8D_2w4ptwh-18" value="" style="rounded=0;whiteSpace=wrap;html=1;strokeColor=none;fillColor=#60a917;fontColor=#ffffff;strokeWidth=0.1;fontSize=3;fontFamily=Teko Light;container=0;" parent="wwjlJXxgG5uiKnBPVhm0-95" vertex="1">
          <mxGeometry x="391.6" y="24.730000000000004" width="3" height="2" as="geometry" />
        </mxCell>
        <mxCell id="dPUykWXNvH8D_2w4ptwh-19" value="" style="rounded=0;whiteSpace=wrap;html=1;strokeColor=none;fillColor=#e3c800;fontColor=#000000;strokeWidth=0.1;fontSize=3;fontFamily=Teko Light;container=0;" parent="wwjlJXxgG5uiKnBPVhm0-95" vertex="1">
          <mxGeometry x="400.6" y="24.730000000000004" width="3" height="2" as="geometry" />
        </mxCell>
        <mxCell id="dPUykWXNvH8D_2w4ptwh-40" value="" style="rounded=0;whiteSpace=wrap;html=1;strokeColor=none;fillColor=#222222;fontColor=#ffffff;strokeWidth=0.1;fontSize=3;fontFamily=Teko Light;container=0;" parent="wwjlJXxgG5uiKnBPVhm0-95" vertex="1">
          <mxGeometry x="404.59857142857146" y="23.227576744186067" width="12" height="5" as="geometry" />
        </mxCell>
        <mxCell id="dPUykWXNvH8D_2w4ptwh-41" value="" style="rounded=0;whiteSpace=wrap;html=1;strokeColor=none;fillColor=#000000;fontColor=#ffffff;strokeWidth=0.1;fontSize=3;fontFamily=Teko Light;container=0;" parent="wwjlJXxgG5uiKnBPVhm0-95" vertex="1">
          <mxGeometry x="404.5971428571429" y="27.231074995060638" width="12" height="7" as="geometry" />
        </mxCell>
        <mxCell id="dPUykWXNvH8D_2w4ptwh-42" value="" style="rounded=0;whiteSpace=wrap;html=1;strokeColor=none;fillColor=#000000;fontColor=#ffffff;strokeWidth=0.1;fontSize=3;fontFamily=Teko Light;container=0;" parent="wwjlJXxgG5uiKnBPVhm0-95" vertex="1">
          <mxGeometry x="408.1" y="24.230000000000004" width="5" height="4" as="geometry" />
        </mxCell>
        <mxCell id="dPUykWXNvH8D_2w4ptwh-43" value="" style="rounded=0;whiteSpace=wrap;html=1;strokeColor=none;fillColor=#60a917;fontColor=#ffffff;strokeWidth=0.1;fontSize=3;fontFamily=Teko Light;container=0;" parent="wwjlJXxgG5uiKnBPVhm0-95" vertex="1">
          <mxGeometry x="404.6" y="24.730000000000004" width="3" height="2" as="geometry" />
        </mxCell>
        <mxCell id="dPUykWXNvH8D_2w4ptwh-44" value="" style="rounded=0;whiteSpace=wrap;html=1;strokeColor=none;fillColor=#e3c800;fontColor=#000000;strokeWidth=0.1;fontSize=3;fontFamily=Teko Light;container=0;" parent="wwjlJXxgG5uiKnBPVhm0-95" vertex="1">
          <mxGeometry x="413.6" y="24.730000000000004" width="3" height="2" as="geometry" />
        </mxCell>
        <mxCell id="dPUykWXNvH8D_2w4ptwh-46" value="" style="rounded=0;whiteSpace=wrap;html=1;strokeColor=none;fillColor=#222222;fontColor=#ffffff;strokeWidth=0.1;fontSize=3;fontFamily=Teko Light;container=0;" parent="wwjlJXxgG5uiKnBPVhm0-95" vertex="1">
          <mxGeometry x="417.59857142857146" y="23.227576744186067" width="12" height="5" as="geometry" />
        </mxCell>
        <mxCell id="dPUykWXNvH8D_2w4ptwh-47" value="" style="rounded=0;whiteSpace=wrap;html=1;strokeColor=none;fillColor=#000000;fontColor=#ffffff;strokeWidth=0.1;fontSize=3;fontFamily=Teko Light;container=0;" parent="wwjlJXxgG5uiKnBPVhm0-95" vertex="1">
          <mxGeometry x="417.5971428571429" y="27.231074995060638" width="12" height="7" as="geometry" />
        </mxCell>
        <mxCell id="dPUykWXNvH8D_2w4ptwh-48" value="" style="rounded=0;whiteSpace=wrap;html=1;strokeColor=none;fillColor=#000000;fontColor=#ffffff;strokeWidth=0.1;fontSize=3;fontFamily=Teko Light;container=0;" parent="wwjlJXxgG5uiKnBPVhm0-95" vertex="1">
          <mxGeometry x="421.1" y="24.230000000000004" width="5" height="4" as="geometry" />
        </mxCell>
        <mxCell id="dPUykWXNvH8D_2w4ptwh-49" value="" style="rounded=0;whiteSpace=wrap;html=1;strokeColor=none;fillColor=#60a917;fontColor=#ffffff;strokeWidth=0.1;fontSize=3;fontFamily=Teko Light;container=0;" parent="wwjlJXxgG5uiKnBPVhm0-95" vertex="1">
          <mxGeometry x="417.6" y="24.730000000000004" width="3" height="2" as="geometry" />
        </mxCell>
        <mxCell id="dPUykWXNvH8D_2w4ptwh-50" value="" style="rounded=0;whiteSpace=wrap;html=1;strokeColor=none;fillColor=#e3c800;fontColor=#000000;strokeWidth=0.1;fontSize=3;fontFamily=Teko Light;container=0;" parent="wwjlJXxgG5uiKnBPVhm0-95" vertex="1">
          <mxGeometry x="426.6" y="24.730000000000004" width="3" height="2" as="geometry" />
        </mxCell>
        <mxCell id="dPUykWXNvH8D_2w4ptwh-52" value="" style="rounded=0;whiteSpace=wrap;html=1;strokeColor=none;fillColor=#222222;fontColor=#ffffff;strokeWidth=0.1;fontSize=3;fontFamily=Teko Light;container=0;" parent="wwjlJXxgG5uiKnBPVhm0-95" vertex="1">
          <mxGeometry x="430.59857142857146" y="23.227576744186067" width="12" height="5" as="geometry" />
        </mxCell>
        <mxCell id="dPUykWXNvH8D_2w4ptwh-53" value="" style="rounded=0;whiteSpace=wrap;html=1;strokeColor=none;fillColor=#000000;fontColor=#ffffff;strokeWidth=0.1;fontSize=3;fontFamily=Teko Light;container=0;" parent="wwjlJXxgG5uiKnBPVhm0-95" vertex="1">
          <mxGeometry x="430.5971428571429" y="27.231074995060638" width="12" height="7" as="geometry" />
        </mxCell>
        <mxCell id="dPUykWXNvH8D_2w4ptwh-54" value="" style="rounded=0;whiteSpace=wrap;html=1;strokeColor=none;fillColor=#000000;fontColor=#ffffff;strokeWidth=0.1;fontSize=3;fontFamily=Teko Light;container=0;" parent="wwjlJXxgG5uiKnBPVhm0-95" vertex="1">
          <mxGeometry x="434.1" y="24.230000000000004" width="5" height="4" as="geometry" />
        </mxCell>
        <mxCell id="dPUykWXNvH8D_2w4ptwh-55" value="" style="rounded=0;whiteSpace=wrap;html=1;strokeColor=none;fillColor=#60a917;fontColor=#ffffff;strokeWidth=0.1;fontSize=3;fontFamily=Teko Light;container=0;" parent="wwjlJXxgG5uiKnBPVhm0-95" vertex="1">
          <mxGeometry x="430.6" y="24.730000000000004" width="3" height="2" as="geometry" />
        </mxCell>
        <mxCell id="dPUykWXNvH8D_2w4ptwh-56" value="" style="rounded=0;whiteSpace=wrap;html=1;strokeColor=none;fillColor=#e3c800;fontColor=#000000;strokeWidth=0.1;fontSize=3;fontFamily=Teko Light;container=0;" parent="wwjlJXxgG5uiKnBPVhm0-95" vertex="1">
          <mxGeometry x="439.6" y="24.730000000000004" width="3" height="2" as="geometry" />
        </mxCell>
        <mxCell id="dPUykWXNvH8D_2w4ptwh-250" value="15" style="text;html=1;align=center;verticalAlign=middle;whiteSpace=wrap;rounded=0;fontSize=3;container=0;" parent="wwjlJXxgG5uiKnBPVhm0-95" vertex="1">
          <mxGeometry x="417.6" y="36.94999999999999" width="12" height="5" as="geometry" />
        </mxCell>
        <mxCell id="dPUykWXNvH8D_2w4ptwh-251" value="16" style="text;html=1;align=center;verticalAlign=middle;whiteSpace=wrap;rounded=0;fontSize=3;container=0;" parent="wwjlJXxgG5uiKnBPVhm0-95" vertex="1">
          <mxGeometry x="430.6" y="36.94999999999999" width="12" height="5" as="geometry" />
        </mxCell>
        <mxCell id="dPUykWXNvH8D_2w4ptwh-304" value="12" style="text;html=1;align=center;verticalAlign=middle;whiteSpace=wrap;rounded=0;fontSize=3;container=0;" parent="wwjlJXxgG5uiKnBPVhm0-95" vertex="1">
          <mxGeometry x="371.1" y="36.94999999999999" width="12" height="5" as="geometry" />
        </mxCell>
        <mxCell id="dPUykWXNvH8D_2w4ptwh-305" value="11" style="text;html=1;align=center;verticalAlign=middle;whiteSpace=wrap;rounded=0;fontSize=3;container=0;" parent="wwjlJXxgG5uiKnBPVhm0-95" vertex="1">
          <mxGeometry x="371.1" y="2.499999999999986" width="12" height="5" as="geometry" />
        </mxCell>
        <mxCell id="dPUykWXNvH8D_2w4ptwh-325" value="" style="ellipse;whiteSpace=wrap;html=1;aspect=fixed;fillColor=#000000;strokeWidth=0.1;strokeColor=#222222;container=0;" parent="wwjlJXxgG5uiKnBPVhm0-95" vertex="1">
          <mxGeometry x="448.5" y="30" width="2" height="2" as="geometry" />
        </mxCell>
        <mxCell id="dPUykWXNvH8D_2w4ptwh-328" value="RESET" style="text;html=1;align=left;verticalAlign=middle;whiteSpace=wrap;rounded=0;fontSize=2;container=0;" parent="wwjlJXxgG5uiKnBPVhm0-95" vertex="1">
          <mxGeometry x="450.5" y="30" width="10" height="2" as="geometry" />
        </mxCell>
        <mxCell id="dPUykWXNvH8D_2w4ptwh-329" value="" style="shape=image;verticalLabelPosition=bottom;labelBackgroundColor=default;verticalAlign=top;aspect=fixed;imageAspect=0;image=data:image/svg+xml,PHN2ZyB4bWxuczp4bGluaz0iaHR0cDovL3d3dy53My5vcmcvMTk5OS94bGluayIgeG1sbnM9Imh0dHA6Ly93d3cudzMub3JnLzIwMDAvc3ZnIiBzdHlsZT0iZmlsbC1ydWxlOmV2ZW5vZGQ7Y2xpcC1ydWxlOmV2ZW5vZGQ7c3Ryb2tlLWxpbmVqb2luOnJvdW5kO3N0cm9rZS1taXRlcmxpbWl0OjI7IiB4bWw6c3BhY2U9InByZXNlcnZlIiB2ZXJzaW9uPSIxLjEiIHZpZXdCb3g9IjAgMCA4MDAgODAwIiBoZWlnaHQ9IjEwMCUiIHdpZHRoPSIxMDAlIj4mI3hhOyAgICA8cGF0aCBzdHlsZT0iZmlsbDp3aGl0ZTtmaWxsLXJ1bGU6bm9uemVybzsiIGQ9Ik0xNzcuNywxMzIuOUwxMzMuNzMzLDEzMi45TDEzMy43MzMsODguOUwxNzcuNzMzLDg4LjlMMTc3LjcsMTMyLjlaTTQzMS4yLDY2Ni4yNjdDMzcxLjg2Nyw2NjMuNiAzMjYuMiw2NDguNTMzIDI5MC44NjcsNjI2Ljc2N0MzMTQuOCw3MzAuNyA0MDQuMzY3LDc4MS43NjcgNDA4LjcsNzg0LjJMNDM1LjEsNzk4Ljc2N0M2MzcuMiw3ODUuMjY3IDc1NS40NjcsNjU0LjgzMyA3NTUuNDY3LDQ4NC4yMzNMNzU1LjQ2Nyw0NDcuMjY3QzcwNy40MzMsNjAzLjkzMyA1OTUuNjMzLDY3My43IDQzMS4yLDY2Ni4yNjdNMTMzLjUzMywzMjAuMTY3TDE3Ny45MzMsMzIwLjE2N0wxNzcuOTMzLDQxOC4xNjdMMjIyLjQ2Nyw0MTguMTY3TDIyMi40NjcsMjU0LjIzM0wyNjcsMjU0LjIzM0wyNjcsNTc0LjYzM0MyNjYuOTY3LDcyNi42NjcgNDAwLDgwMCA0MDAsODAwQzE3Ni41LDgwMCA0NC41MzMsNjY0LjUgNDQuNTMzLDQ4NC4yMzNMNDQuNTMzLDEyMS42NjdMODksMTIxLjY2N0w4OSwzNjQuMTMzTDEzMy41MzMsMzY0LjEzM0wxMzMuNTMzLDMyMC4xNjdaTTg5LDQ0LjQ2N0w0NC41MzMsNDQuNDY3TDQ0LjUzMywwTDg5LDBMODksNDQuNDY3Wk0xNzcuNywyNzYuMjMzTDEzMy43LDI3Ni4yMzNMMTMzLjcsMjMyLjIzM0wxNzcuNywyMzIuMjMzTDE3Ny43LDI3Ni4yMzNaTTIyMi4xNjcsMjEwLjIzM0wxNzguMTY3LDIxMC4yMzNMMTc4LjE2NywxNjYuMjMzTDIyMi4xNjcsMTY2LjIzM0wyMjIuMTY3LDIxMC4yMzNaTTI2Ni45MzMsMTU0LjlMMjIyLjQ2NywxNTQuOUwyMjIuNDY3LDExMC45TDI2Ni45NjcsMTEwLjlMMjY2LjkzMywxNTQuOVpNMjIyLjQ2Nyw4OC40NjdMMTc3LjkzMyw4OC40NjdMMTc3LjkzMyw0NC40NjdMMjIyLjQ2Nyw0NC40NjdMMjIyLjQ2Nyw4OC40NjdaTTczOC4yMzMsNDQyTDc1NS40NjcsMzg1LjczM0w3NTUuNDY3LDAuNUM1NTMuOTY3LDAuNSA1MzMsNzcuNzMzIDUzMywxNTEuNTMzTDUzMyw1NzQuNjY3QzUzMyw1OTYuNTY3IDUzMC44NjcsNjE5LjggNTI2LjQzMyw2NDIuNTY3QzYzMy4yNjcsNjIzLjEzMyA3MDIuOTY3LDU1Ny4wNjcgNzM4LjIzMyw0NDIuMDMzTDczOC4yMzMsNDQyWiIvPiYjeGE7PC9zdmc+;container=0;" parent="wwjlJXxgG5uiKnBPVhm0-95" vertex="1">
          <mxGeometry x="28" y="10" width="6" height="6" as="geometry" />
        </mxCell>
        <mxCell id="dPUykWXNvH8D_2w4ptwh-330" value="" style="endArrow=none;html=1;rounded=0;strokeWidth=0.5;exitX=1;exitY=1;exitDx=0;exitDy=0;" parent="wwjlJXxgG5uiKnBPVhm0-95" edge="1">
          <mxGeometry width="50" height="50" relative="1" as="geometry">
            <mxPoint x="38" y="15.730000000000004" as="sourcePoint" />
            <mxPoint x="38" y="10.280000000000001" as="targetPoint" />
          </mxGeometry>
        </mxCell>
        <mxCell id="dPUykWXNvH8D_2w4ptwh-331" value="&lt;i style=&quot;font-size: 6px;&quot;&gt;Edge&lt;/i&gt;Switch 16" style="text;html=1;align=left;verticalAlign=middle;whiteSpace=wrap;rounded=0;fontSize=6;spacing=0;fontStyle=1;fontFamily=Helvetica;container=0;" parent="wwjlJXxgG5uiKnBPVhm0-95" vertex="1">
          <mxGeometry x="42" y="10" width="43" height="6" as="geometry" />
        </mxCell>
        <mxCell id="dPUykWXNvH8D_2w4ptwh-332" value="&lt;p style=&quot;line-height: 100%;&quot;&gt;XG&lt;/p&gt;" style="text;html=1;align=center;verticalAlign=middle;whiteSpace=wrap;rounded=1;fontSize=4;spacing=0;fontStyle=1;fontColor=#111111;fillColor=#f0f0f0;spacingBottom=0;container=0;" parent="wwjlJXxgG5uiKnBPVhm0-95" vertex="1">
          <mxGeometry x="85" y="10.5" width="8" height="5" as="geometry" />
        </mxCell>
        <mxCell id="PZP4gdgeWaH-fIwLRfgN-395" value="" style="rounded=0;whiteSpace=wrap;html=1;fillColor=#000000;fontColor=#ffffff;strokeColor=none;container=0;" parent="wwjlJXxgG5uiKnBPVhm0-95" vertex="1">
          <mxGeometry x="471.6" y="3" width="4" height="6" as="geometry" />
        </mxCell>
        <mxCell id="PZP4gdgeWaH-fIwLRfgN-396" value="" style="ellipse;whiteSpace=wrap;html=1;aspect=fixed;strokeColor=none;fillColor=#000000;container=0;" parent="wwjlJXxgG5uiKnBPVhm0-95" vertex="1">
          <mxGeometry x="472.6" y="3" width="6" height="6" as="geometry" />
        </mxCell>
        <mxCell id="PZP4gdgeWaH-fIwLRfgN-397" value="" style="ellipse;whiteSpace=wrap;html=1;aspect=fixed;strokeColor=none;fillColor=#000000;container=0;" parent="wwjlJXxgG5uiKnBPVhm0-95" vertex="1">
          <mxGeometry x="468.6" y="3" width="6" height="6" as="geometry" />
        </mxCell>
        <mxCell id="PZP4gdgeWaH-fIwLRfgN-391" value="" style="rounded=0;whiteSpace=wrap;html=1;fillColor=#000000;fontColor=#ffffff;strokeColor=none;container=0;" parent="wwjlJXxgG5uiKnBPVhm0-95" vertex="1">
          <mxGeometry x="471.6" y="35.45" width="4" height="6" as="geometry" />
        </mxCell>
        <mxCell id="PZP4gdgeWaH-fIwLRfgN-392" value="" style="ellipse;whiteSpace=wrap;html=1;aspect=fixed;strokeColor=none;fillColor=#000000;container=0;" parent="wwjlJXxgG5uiKnBPVhm0-95" vertex="1">
          <mxGeometry x="472.6" y="35.45" width="6" height="6" as="geometry" />
        </mxCell>
        <mxCell id="PZP4gdgeWaH-fIwLRfgN-393" value="" style="ellipse;whiteSpace=wrap;html=1;aspect=fixed;strokeColor=none;fillColor=#000000;container=0;" parent="wwjlJXxgG5uiKnBPVhm0-95" vertex="1">
          <mxGeometry x="468.6" y="35.45" width="6" height="6" as="geometry" />
        </mxCell>
        <mxCell id="PZP4gdgeWaH-fIwLRfgN-385" value="" style="rounded=0;whiteSpace=wrap;html=1;fillColor=#000000;fontColor=#ffffff;strokeColor=none;container=0;" parent="wwjlJXxgG5uiKnBPVhm0-95" vertex="1">
          <mxGeometry x="7" y="3" width="4" height="6" as="geometry" />
        </mxCell>
        <mxCell id="PZP4gdgeWaH-fIwLRfgN-386" value="" style="ellipse;whiteSpace=wrap;html=1;aspect=fixed;strokeColor=none;fillColor=#000000;container=0;" parent="wwjlJXxgG5uiKnBPVhm0-95" vertex="1">
          <mxGeometry x="8" y="3" width="6" height="6" as="geometry" />
        </mxCell>
        <mxCell id="PZP4gdgeWaH-fIwLRfgN-387" value="" style="ellipse;whiteSpace=wrap;html=1;aspect=fixed;strokeColor=none;fillColor=#000000;container=0;" parent="wwjlJXxgG5uiKnBPVhm0-95" vertex="1">
          <mxGeometry x="4" y="3" width="6" height="6" as="geometry" />
        </mxCell>
        <mxCell id="PZP4gdgeWaH-fIwLRfgN-376" value="" style="rounded=0;whiteSpace=wrap;html=1;fillColor=#000000;fontColor=#ffffff;strokeColor=none;container=0;" parent="wwjlJXxgG5uiKnBPVhm0-95" vertex="1">
          <mxGeometry x="7" y="35.45" width="4" height="6" as="geometry" />
        </mxCell>
        <mxCell id="PZP4gdgeWaH-fIwLRfgN-381" value="" style="ellipse;whiteSpace=wrap;html=1;aspect=fixed;strokeColor=none;fillColor=#000000;container=0;" parent="wwjlJXxgG5uiKnBPVhm0-95" vertex="1">
          <mxGeometry x="8" y="35.45" width="6" height="6" as="geometry" />
        </mxCell>
        <mxCell id="PZP4gdgeWaH-fIwLRfgN-382" value="" style="ellipse;whiteSpace=wrap;html=1;aspect=fixed;strokeColor=none;fillColor=#000000;container=0;" parent="wwjlJXxgG5uiKnBPVhm0-95" vertex="1">
          <mxGeometry x="4" y="35.45" width="6" height="6" as="geometry" />
        </mxCell>
        <mxCell id="dPUykWXNvH8D_2w4ptwh-189" value="" style="rounded=0;whiteSpace=wrap;html=1;strokeColor=none;fillColor=#222222;fontColor=#ffffff;strokeWidth=0.1;fontSize=3;fontFamily=Teko Light;container=0;" parent="wwjlJXxgG5uiKnBPVhm0-95" vertex="1">
          <mxGeometry x="391.59857142857146" y="23.227576744186052" width="12" height="5" as="geometry" />
        </mxCell>
        <mxCell id="dPUykWXNvH8D_2w4ptwh-190" value="" style="rounded=0;whiteSpace=wrap;html=1;strokeColor=none;fillColor=#000000;fontColor=#ffffff;strokeWidth=0.1;fontSize=3;fontFamily=Teko Light;container=0;" parent="wwjlJXxgG5uiKnBPVhm0-95" vertex="1">
          <mxGeometry x="391.5971428571429" y="27.231074995060624" width="12" height="7" as="geometry" />
        </mxCell>
        <mxCell id="dPUykWXNvH8D_2w4ptwh-191" value="" style="rounded=0;whiteSpace=wrap;html=1;strokeColor=none;fillColor=#000000;fontColor=#ffffff;strokeWidth=0.1;fontSize=3;fontFamily=Teko Light;container=0;" parent="wwjlJXxgG5uiKnBPVhm0-95" vertex="1">
          <mxGeometry x="395.1" y="24.22999999999999" width="5" height="4" as="geometry" />
        </mxCell>
        <mxCell id="dPUykWXNvH8D_2w4ptwh-192" value="" style="rounded=0;whiteSpace=wrap;html=1;strokeColor=none;fillColor=#60a917;fontColor=#ffffff;strokeWidth=0.1;fontSize=3;fontFamily=Teko Light;container=0;" parent="wwjlJXxgG5uiKnBPVhm0-95" vertex="1">
          <mxGeometry x="391.6" y="24.72999999999999" width="3" height="2" as="geometry" />
        </mxCell>
        <mxCell id="dPUykWXNvH8D_2w4ptwh-193" value="" style="rounded=0;whiteSpace=wrap;html=1;strokeColor=none;fillColor=#e3c800;fontColor=#000000;strokeWidth=0.1;fontSize=3;fontFamily=Teko Light;container=0;" parent="wwjlJXxgG5uiKnBPVhm0-95" vertex="1">
          <mxGeometry x="400.6" y="24.72999999999999" width="3" height="2" as="geometry" />
        </mxCell>
        <mxCell id="dPUykWXNvH8D_2w4ptwh-194" value="" style="rounded=0;whiteSpace=wrap;html=1;strokeColor=none;fillColor=#222222;fontColor=#ffffff;strokeWidth=0.1;fontSize=3;fontFamily=Teko Light;container=0;" parent="wwjlJXxgG5uiKnBPVhm0-95" vertex="1">
          <mxGeometry x="404.59857142857146" y="23.227576744186052" width="12" height="5" as="geometry" />
        </mxCell>
        <mxCell id="dPUykWXNvH8D_2w4ptwh-195" value="" style="rounded=0;whiteSpace=wrap;html=1;strokeColor=none;fillColor=#000000;fontColor=#ffffff;strokeWidth=0.1;fontSize=3;fontFamily=Teko Light;container=0;" parent="wwjlJXxgG5uiKnBPVhm0-95" vertex="1">
          <mxGeometry x="404.5971428571429" y="27.231074995060624" width="12" height="7" as="geometry" />
        </mxCell>
        <mxCell id="dPUykWXNvH8D_2w4ptwh-196" value="" style="rounded=0;whiteSpace=wrap;html=1;strokeColor=none;fillColor=#000000;fontColor=#ffffff;strokeWidth=0.1;fontSize=3;fontFamily=Teko Light;container=0;" parent="wwjlJXxgG5uiKnBPVhm0-95" vertex="1">
          <mxGeometry x="408.1" y="24.22999999999999" width="5" height="4" as="geometry" />
        </mxCell>
        <mxCell id="dPUykWXNvH8D_2w4ptwh-197" value="" style="rounded=0;whiteSpace=wrap;html=1;strokeColor=none;fillColor=#60a917;fontColor=#ffffff;strokeWidth=0.1;fontSize=3;fontFamily=Teko Light;container=0;" parent="wwjlJXxgG5uiKnBPVhm0-95" vertex="1">
          <mxGeometry x="404.6" y="24.72999999999999" width="3" height="2" as="geometry" />
        </mxCell>
        <mxCell id="dPUykWXNvH8D_2w4ptwh-198" value="" style="rounded=0;whiteSpace=wrap;html=1;strokeColor=none;fillColor=#e3c800;fontColor=#000000;strokeWidth=0.1;fontSize=3;fontFamily=Teko Light;container=0;" parent="wwjlJXxgG5uiKnBPVhm0-95" vertex="1">
          <mxGeometry x="413.6" y="24.72999999999999" width="3" height="2" as="geometry" />
        </mxCell>
        <mxCell id="dPUykWXNvH8D_2w4ptwh-199" value="" style="rounded=0;whiteSpace=wrap;html=1;strokeColor=none;fillColor=#222222;fontColor=#ffffff;strokeWidth=0.1;fontSize=3;fontFamily=Teko Light;container=0;" parent="wwjlJXxgG5uiKnBPVhm0-95" vertex="1">
          <mxGeometry x="417.59857142857146" y="23.227576744186052" width="12" height="5" as="geometry" />
        </mxCell>
        <mxCell id="dPUykWXNvH8D_2w4ptwh-200" value="" style="rounded=0;whiteSpace=wrap;html=1;strokeColor=none;fillColor=#000000;fontColor=#ffffff;strokeWidth=0.1;fontSize=3;fontFamily=Teko Light;container=0;" parent="wwjlJXxgG5uiKnBPVhm0-95" vertex="1">
          <mxGeometry x="417.5971428571429" y="27.231074995060624" width="12" height="7" as="geometry" />
        </mxCell>
        <mxCell id="dPUykWXNvH8D_2w4ptwh-201" value="" style="rounded=0;whiteSpace=wrap;html=1;strokeColor=none;fillColor=#000000;fontColor=#ffffff;strokeWidth=0.1;fontSize=3;fontFamily=Teko Light;container=0;" parent="wwjlJXxgG5uiKnBPVhm0-95" vertex="1">
          <mxGeometry x="421.1" y="24.22999999999999" width="5" height="4" as="geometry" />
        </mxCell>
        <mxCell id="dPUykWXNvH8D_2w4ptwh-202" value="" style="rounded=0;whiteSpace=wrap;html=1;strokeColor=none;fillColor=#60a917;fontColor=#ffffff;strokeWidth=0.1;fontSize=3;fontFamily=Teko Light;container=0;" parent="wwjlJXxgG5uiKnBPVhm0-95" vertex="1">
          <mxGeometry x="417.6" y="24.72999999999999" width="3" height="2" as="geometry" />
        </mxCell>
        <mxCell id="dPUykWXNvH8D_2w4ptwh-203" value="" style="rounded=0;whiteSpace=wrap;html=1;strokeColor=none;fillColor=#e3c800;fontColor=#000000;strokeWidth=0.1;fontSize=3;fontFamily=Teko Light;container=0;" parent="wwjlJXxgG5uiKnBPVhm0-95" vertex="1">
          <mxGeometry x="426.6" y="24.72999999999999" width="3" height="2" as="geometry" />
        </mxCell>
        <mxCell id="dPUykWXNvH8D_2w4ptwh-204" value="" style="rounded=0;whiteSpace=wrap;html=1;strokeColor=none;fillColor=#222222;fontColor=#ffffff;strokeWidth=0.1;fontSize=3;fontFamily=Teko Light;container=0;" parent="wwjlJXxgG5uiKnBPVhm0-95" vertex="1">
          <mxGeometry x="430.59857142857146" y="23.227576744186052" width="12" height="5" as="geometry" />
        </mxCell>
        <mxCell id="dPUykWXNvH8D_2w4ptwh-205" value="" style="rounded=0;whiteSpace=wrap;html=1;strokeColor=none;fillColor=#000000;fontColor=#ffffff;strokeWidth=0.1;fontSize=3;fontFamily=Teko Light;container=0;" parent="wwjlJXxgG5uiKnBPVhm0-95" vertex="1">
          <mxGeometry x="430.5971428571429" y="27.231074995060624" width="12" height="7" as="geometry" />
        </mxCell>
        <mxCell id="dPUykWXNvH8D_2w4ptwh-206" value="" style="rounded=0;whiteSpace=wrap;html=1;strokeColor=none;fillColor=#000000;fontColor=#ffffff;strokeWidth=0.1;fontSize=3;fontFamily=Teko Light;container=0;" parent="wwjlJXxgG5uiKnBPVhm0-95" vertex="1">
          <mxGeometry x="434.1" y="24.22999999999999" width="5" height="4" as="geometry" />
        </mxCell>
        <mxCell id="dPUykWXNvH8D_2w4ptwh-207" value="" style="rounded=0;whiteSpace=wrap;html=1;strokeColor=none;fillColor=#60a917;fontColor=#ffffff;strokeWidth=0.1;fontSize=3;fontFamily=Teko Light;container=0;" parent="wwjlJXxgG5uiKnBPVhm0-95" vertex="1">
          <mxGeometry x="430.6" y="24.72999999999999" width="3" height="2" as="geometry" />
        </mxCell>
        <mxCell id="dPUykWXNvH8D_2w4ptwh-208" value="" style="rounded=0;whiteSpace=wrap;html=1;strokeColor=none;fillColor=#e3c800;fontColor=#000000;strokeWidth=0.1;fontSize=3;fontFamily=Teko Light;container=0;" parent="wwjlJXxgG5uiKnBPVhm0-95" vertex="1">
          <mxGeometry x="439.6" y="24.72999999999999" width="3" height="2" as="geometry" />
        </mxCell>
        <mxCell id="dPUykWXNvH8D_2w4ptwh-297" value="" style="rounded=0;whiteSpace=wrap;html=1;strokeColor=#000000;fillColor=#BFBFBF;fontColor=#ffffff;strokeWidth=0.1;container=0;align=center;verticalAlign=middle;fontFamily=Teko Light;fontSize=3;" parent="wwjlJXxgG5uiKnBPVhm0-95" vertex="1">
          <mxGeometry x="369.6" y="8.22999999999999" width="15" height="28" as="geometry" />
        </mxCell>
        <mxCell id="dPUykWXNvH8D_2w4ptwh-299" value="" style="rounded=0;whiteSpace=wrap;html=1;strokeColor=#AAAAAA;fillColor=#000000;fontColor=#ffffff;strokeWidth=0.1;container=0;" parent="wwjlJXxgG5uiKnBPVhm0-95" vertex="1">
          <mxGeometry x="370.1" y="25.72999999999999" width="14" height="10" as="geometry" />
        </mxCell>
        <mxCell id="dPUykWXNvH8D_2w4ptwh-300" value="" style="rounded=0;whiteSpace=wrap;html=1;strokeColor=#AAAAAA;fillColor=#000000;fontColor=#ffffff;strokeWidth=0.1;container=0;" parent="wwjlJXxgG5uiKnBPVhm0-95" vertex="1">
          <mxGeometry x="370.1" y="8.72999999999999" width="14" height="10" as="geometry" />
        </mxCell>
        <mxCell id="dPUykWXNvH8D_2w4ptwh-301" value="" style="rounded=0;whiteSpace=wrap;html=1;strokeColor=#111111;fillColor=#BFBFBF;fontColor=#ffffff;strokeWidth=0.1;container=0;" parent="wwjlJXxgG5uiKnBPVhm0-95" vertex="1">
          <mxGeometry x="374.6" y="25.22999999999999" width="5" height="1.2" as="geometry" />
        </mxCell>
        <mxCell id="dPUykWXNvH8D_2w4ptwh-302" value="" style="rounded=0;whiteSpace=wrap;html=1;strokeColor=#111111;fillColor=#BFBFBF;fontColor=#ffffff;strokeWidth=0.1;container=0;" parent="wwjlJXxgG5uiKnBPVhm0-95" vertex="1">
          <mxGeometry x="374.6" y="18.029999999999987" width="5" height="1.2" as="geometry" />
        </mxCell>
        <mxCell id="wwjlJXxgG5uiKnBPVhm0-2" value="10" style="text;html=1;align=center;verticalAlign=middle;whiteSpace=wrap;rounded=0;fontSize=3;container=0;" vertex="1" parent="wwjlJXxgG5uiKnBPVhm0-95">
          <mxGeometry x="346.1" y="36.94999999999999" width="12" height="5" as="geometry" />
        </mxCell>
        <mxCell id="wwjlJXxgG5uiKnBPVhm0-3" value="9" style="text;html=1;align=center;verticalAlign=middle;whiteSpace=wrap;rounded=0;fontSize=3;container=0;" vertex="1" parent="wwjlJXxgG5uiKnBPVhm0-95">
          <mxGeometry x="346.1" y="2.499999999999986" width="12" height="5" as="geometry" />
        </mxCell>
        <mxCell id="wwjlJXxgG5uiKnBPVhm0-4" value="" style="rounded=0;whiteSpace=wrap;html=1;strokeColor=#000000;fillColor=#BFBFBF;fontColor=#ffffff;strokeWidth=0.1;container=0;align=center;verticalAlign=middle;fontFamily=Teko Light;fontSize=3;" vertex="1" parent="wwjlJXxgG5uiKnBPVhm0-95">
          <mxGeometry x="344.6" y="8.22999999999999" width="15" height="28" as="geometry" />
        </mxCell>
        <mxCell id="wwjlJXxgG5uiKnBPVhm0-5" value="" style="rounded=0;whiteSpace=wrap;html=1;strokeColor=#AAAAAA;fillColor=#000000;fontColor=#ffffff;strokeWidth=0.1;container=0;" vertex="1" parent="wwjlJXxgG5uiKnBPVhm0-95">
          <mxGeometry x="345.1" y="25.72999999999999" width="14" height="10" as="geometry" />
        </mxCell>
        <mxCell id="wwjlJXxgG5uiKnBPVhm0-6" value="" style="rounded=0;whiteSpace=wrap;html=1;strokeColor=#AAAAAA;fillColor=#000000;fontColor=#ffffff;strokeWidth=0.1;container=0;" vertex="1" parent="wwjlJXxgG5uiKnBPVhm0-95">
          <mxGeometry x="345.1" y="8.72999999999999" width="14" height="10" as="geometry" />
        </mxCell>
        <mxCell id="wwjlJXxgG5uiKnBPVhm0-7" value="" style="rounded=0;whiteSpace=wrap;html=1;strokeColor=#111111;fillColor=#BFBFBF;fontColor=#ffffff;strokeWidth=0.1;container=0;" vertex="1" parent="wwjlJXxgG5uiKnBPVhm0-95">
          <mxGeometry x="349.6" y="25.22999999999999" width="5" height="1.2" as="geometry" />
        </mxCell>
        <mxCell id="wwjlJXxgG5uiKnBPVhm0-8" value="" style="rounded=0;whiteSpace=wrap;html=1;strokeColor=#111111;fillColor=#BFBFBF;fontColor=#ffffff;strokeWidth=0.1;container=0;" vertex="1" parent="wwjlJXxgG5uiKnBPVhm0-95">
          <mxGeometry x="349.6" y="18.029999999999987" width="5" height="1.2" as="geometry" />
        </mxCell>
        <mxCell id="wwjlJXxgG5uiKnBPVhm0-9" value="8" style="text;html=1;align=center;verticalAlign=middle;whiteSpace=wrap;rounded=0;fontSize=3;container=0;" vertex="1" parent="wwjlJXxgG5uiKnBPVhm0-95">
          <mxGeometry x="321.1" y="36.94999999999999" width="12" height="5" as="geometry" />
        </mxCell>
        <mxCell id="wwjlJXxgG5uiKnBPVhm0-10" value="7" style="text;html=1;align=center;verticalAlign=middle;whiteSpace=wrap;rounded=0;fontSize=3;container=0;" vertex="1" parent="wwjlJXxgG5uiKnBPVhm0-95">
          <mxGeometry x="321.1" y="2.499999999999986" width="12" height="5" as="geometry" />
        </mxCell>
        <mxCell id="wwjlJXxgG5uiKnBPVhm0-11" value="" style="rounded=0;whiteSpace=wrap;html=1;strokeColor=#000000;fillColor=#BFBFBF;fontColor=#ffffff;strokeWidth=0.1;container=0;align=center;verticalAlign=middle;fontFamily=Teko Light;fontSize=3;" vertex="1" parent="wwjlJXxgG5uiKnBPVhm0-95">
          <mxGeometry x="319.6" y="8.22999999999999" width="15" height="28" as="geometry" />
        </mxCell>
        <mxCell id="wwjlJXxgG5uiKnBPVhm0-12" value="" style="rounded=0;whiteSpace=wrap;html=1;strokeColor=#AAAAAA;fillColor=#000000;fontColor=#ffffff;strokeWidth=0.1;container=0;" vertex="1" parent="wwjlJXxgG5uiKnBPVhm0-95">
          <mxGeometry x="320.1" y="25.72999999999999" width="14" height="10" as="geometry" />
        </mxCell>
        <mxCell id="wwjlJXxgG5uiKnBPVhm0-13" value="" style="rounded=0;whiteSpace=wrap;html=1;strokeColor=#AAAAAA;fillColor=#000000;fontColor=#ffffff;strokeWidth=0.1;container=0;" vertex="1" parent="wwjlJXxgG5uiKnBPVhm0-95">
          <mxGeometry x="320.1" y="8.72999999999999" width="14" height="10" as="geometry" />
        </mxCell>
        <mxCell id="wwjlJXxgG5uiKnBPVhm0-14" value="" style="rounded=0;whiteSpace=wrap;html=1;strokeColor=#111111;fillColor=#BFBFBF;fontColor=#ffffff;strokeWidth=0.1;container=0;" vertex="1" parent="wwjlJXxgG5uiKnBPVhm0-95">
          <mxGeometry x="324.6" y="25.22999999999999" width="5" height="1.2" as="geometry" />
        </mxCell>
        <mxCell id="wwjlJXxgG5uiKnBPVhm0-15" value="" style="rounded=0;whiteSpace=wrap;html=1;strokeColor=#111111;fillColor=#BFBFBF;fontColor=#ffffff;strokeWidth=0.1;container=0;" vertex="1" parent="wwjlJXxgG5uiKnBPVhm0-95">
          <mxGeometry x="324.6" y="18.029999999999987" width="5" height="1.2" as="geometry" />
        </mxCell>
        <mxCell id="wwjlJXxgG5uiKnBPVhm0-16" value="6" style="text;html=1;align=center;verticalAlign=middle;whiteSpace=wrap;rounded=0;fontSize=3;container=0;" vertex="1" parent="wwjlJXxgG5uiKnBPVhm0-95">
          <mxGeometry x="296.1" y="36.94999999999999" width="12" height="5" as="geometry" />
        </mxCell>
        <mxCell id="wwjlJXxgG5uiKnBPVhm0-17" value="5" style="text;html=1;align=center;verticalAlign=middle;whiteSpace=wrap;rounded=0;fontSize=3;container=0;" vertex="1" parent="wwjlJXxgG5uiKnBPVhm0-95">
          <mxGeometry x="296.1" y="2.499999999999986" width="12" height="5" as="geometry" />
        </mxCell>
        <mxCell id="wwjlJXxgG5uiKnBPVhm0-18" value="" style="rounded=0;whiteSpace=wrap;html=1;strokeColor=#000000;fillColor=#BFBFBF;fontColor=#ffffff;strokeWidth=0.1;container=0;align=center;verticalAlign=middle;fontFamily=Teko Light;fontSize=3;" vertex="1" parent="wwjlJXxgG5uiKnBPVhm0-95">
          <mxGeometry x="294.6" y="8.22999999999999" width="15" height="28" as="geometry" />
        </mxCell>
        <mxCell id="wwjlJXxgG5uiKnBPVhm0-19" value="" style="rounded=0;whiteSpace=wrap;html=1;strokeColor=#AAAAAA;fillColor=#000000;fontColor=#ffffff;strokeWidth=0.1;container=0;" vertex="1" parent="wwjlJXxgG5uiKnBPVhm0-95">
          <mxGeometry x="295.1" y="25.72999999999999" width="14" height="10" as="geometry" />
        </mxCell>
        <mxCell id="wwjlJXxgG5uiKnBPVhm0-20" value="" style="rounded=0;whiteSpace=wrap;html=1;strokeColor=#AAAAAA;fillColor=#000000;fontColor=#ffffff;strokeWidth=0.1;container=0;" vertex="1" parent="wwjlJXxgG5uiKnBPVhm0-95">
          <mxGeometry x="295.1" y="8.72999999999999" width="14" height="10" as="geometry" />
        </mxCell>
        <mxCell id="wwjlJXxgG5uiKnBPVhm0-21" value="" style="rounded=0;whiteSpace=wrap;html=1;strokeColor=#111111;fillColor=#BFBFBF;fontColor=#ffffff;strokeWidth=0.1;container=0;" vertex="1" parent="wwjlJXxgG5uiKnBPVhm0-95">
          <mxGeometry x="299.6" y="25.22999999999999" width="5" height="1.2" as="geometry" />
        </mxCell>
        <mxCell id="wwjlJXxgG5uiKnBPVhm0-22" value="" style="rounded=0;whiteSpace=wrap;html=1;strokeColor=#111111;fillColor=#BFBFBF;fontColor=#ffffff;strokeWidth=0.1;container=0;" vertex="1" parent="wwjlJXxgG5uiKnBPVhm0-95">
          <mxGeometry x="299.6" y="18.029999999999987" width="5" height="1.2" as="geometry" />
        </mxCell>
        <mxCell id="wwjlJXxgG5uiKnBPVhm0-23" value="4" style="text;html=1;align=center;verticalAlign=middle;whiteSpace=wrap;rounded=0;fontSize=3;container=0;" vertex="1" parent="wwjlJXxgG5uiKnBPVhm0-95">
          <mxGeometry x="271.1" y="36.94999999999999" width="12" height="5" as="geometry" />
        </mxCell>
        <mxCell id="wwjlJXxgG5uiKnBPVhm0-24" value="3" style="text;html=1;align=center;verticalAlign=middle;whiteSpace=wrap;rounded=0;fontSize=3;container=0;" vertex="1" parent="wwjlJXxgG5uiKnBPVhm0-95">
          <mxGeometry x="271.1" y="2.499999999999986" width="12" height="5" as="geometry" />
        </mxCell>
        <mxCell id="wwjlJXxgG5uiKnBPVhm0-25" value="" style="rounded=0;whiteSpace=wrap;html=1;strokeColor=#000000;fillColor=#BFBFBF;fontColor=#ffffff;strokeWidth=0.1;container=0;align=center;verticalAlign=middle;fontFamily=Teko Light;fontSize=3;" vertex="1" parent="wwjlJXxgG5uiKnBPVhm0-95">
          <mxGeometry x="269.6" y="8.22999999999999" width="15" height="28" as="geometry" />
        </mxCell>
        <mxCell id="wwjlJXxgG5uiKnBPVhm0-26" value="" style="rounded=0;whiteSpace=wrap;html=1;strokeColor=#AAAAAA;fillColor=#000000;fontColor=#ffffff;strokeWidth=0.1;container=0;" vertex="1" parent="wwjlJXxgG5uiKnBPVhm0-95">
          <mxGeometry x="270.1" y="25.72999999999999" width="14" height="10" as="geometry" />
        </mxCell>
        <mxCell id="wwjlJXxgG5uiKnBPVhm0-27" value="" style="rounded=0;whiteSpace=wrap;html=1;strokeColor=#AAAAAA;fillColor=#000000;fontColor=#ffffff;strokeWidth=0.1;container=0;" vertex="1" parent="wwjlJXxgG5uiKnBPVhm0-95">
          <mxGeometry x="270.1" y="8.72999999999999" width="14" height="10" as="geometry" />
        </mxCell>
        <mxCell id="wwjlJXxgG5uiKnBPVhm0-28" value="" style="rounded=0;whiteSpace=wrap;html=1;strokeColor=#111111;fillColor=#BFBFBF;fontColor=#ffffff;strokeWidth=0.1;container=0;" vertex="1" parent="wwjlJXxgG5uiKnBPVhm0-95">
          <mxGeometry x="274.6" y="25.22999999999999" width="5" height="1.2" as="geometry" />
        </mxCell>
        <mxCell id="wwjlJXxgG5uiKnBPVhm0-29" value="" style="rounded=0;whiteSpace=wrap;html=1;strokeColor=#111111;fillColor=#BFBFBF;fontColor=#ffffff;strokeWidth=0.1;container=0;" vertex="1" parent="wwjlJXxgG5uiKnBPVhm0-95">
          <mxGeometry x="274.6" y="18.029999999999987" width="5" height="1.2" as="geometry" />
        </mxCell>
        <mxCell id="wwjlJXxgG5uiKnBPVhm0-30" value="2" style="text;html=1;align=center;verticalAlign=middle;whiteSpace=wrap;rounded=0;fontSize=3;container=0;" vertex="1" parent="wwjlJXxgG5uiKnBPVhm0-95">
          <mxGeometry x="246.10000000000002" y="36.94999999999999" width="12" height="5" as="geometry" />
        </mxCell>
        <mxCell id="wwjlJXxgG5uiKnBPVhm0-31" value="1" style="text;html=1;align=center;verticalAlign=middle;whiteSpace=wrap;rounded=0;fontSize=3;container=0;" vertex="1" parent="wwjlJXxgG5uiKnBPVhm0-95">
          <mxGeometry x="246.10000000000002" y="2.499999999999986" width="12" height="5" as="geometry" />
        </mxCell>
        <mxCell id="wwjlJXxgG5uiKnBPVhm0-32" value="" style="rounded=0;whiteSpace=wrap;html=1;strokeColor=#000000;fillColor=#BFBFBF;fontColor=#ffffff;strokeWidth=0.1;container=0;align=center;verticalAlign=middle;fontFamily=Teko Light;fontSize=3;" vertex="1" parent="wwjlJXxgG5uiKnBPVhm0-95">
          <mxGeometry x="244.60000000000002" y="8.22999999999999" width="15" height="28" as="geometry" />
        </mxCell>
        <mxCell id="wwjlJXxgG5uiKnBPVhm0-33" value="" style="rounded=0;whiteSpace=wrap;html=1;strokeColor=#AAAAAA;fillColor=#000000;fontColor=#ffffff;strokeWidth=0.1;container=0;" vertex="1" parent="wwjlJXxgG5uiKnBPVhm0-95">
          <mxGeometry x="245.10000000000002" y="25.72999999999999" width="14" height="10" as="geometry" />
        </mxCell>
        <mxCell id="wwjlJXxgG5uiKnBPVhm0-34" value="" style="rounded=0;whiteSpace=wrap;html=1;strokeColor=#AAAAAA;fillColor=#000000;fontColor=#ffffff;strokeWidth=0.1;container=0;" vertex="1" parent="wwjlJXxgG5uiKnBPVhm0-95">
          <mxGeometry x="245.10000000000002" y="8.72999999999999" width="14" height="10" as="geometry" />
        </mxCell>
        <mxCell id="wwjlJXxgG5uiKnBPVhm0-35" value="" style="rounded=0;whiteSpace=wrap;html=1;strokeColor=#111111;fillColor=#BFBFBF;fontColor=#ffffff;strokeWidth=0.1;container=0;" vertex="1" parent="wwjlJXxgG5uiKnBPVhm0-95">
          <mxGeometry x="249.60000000000002" y="25.22999999999999" width="5" height="1.2" as="geometry" />
        </mxCell>
        <mxCell id="wwjlJXxgG5uiKnBPVhm0-36" value="" style="rounded=0;whiteSpace=wrap;html=1;strokeColor=#111111;fillColor=#BFBFBF;fontColor=#ffffff;strokeWidth=0.1;container=0;" vertex="1" parent="wwjlJXxgG5uiKnBPVhm0-95">
          <mxGeometry x="249.60000000000002" y="18.029999999999987" width="5" height="1.2" as="geometry" />
        </mxCell>
        <mxCell id="wwjlJXxgG5uiKnBPVhm0-37" value="" style="ellipse;whiteSpace=wrap;html=1;aspect=fixed;strokeColor=none;fillColor=#f0f0f0;container=0;" vertex="1" parent="wwjlJXxgG5uiKnBPVhm0-95">
          <mxGeometry x="29.5" y="21" width="3" height="3" as="geometry" />
        </mxCell>
        <mxCell id="wwjlJXxgG5uiKnBPVhm0-38" value="" style="ellipse;whiteSpace=wrap;html=1;aspect=fixed;strokeColor=none;fillColor=#f0f0f0;container=0;align=center;verticalAlign=middle;fontFamily=Helvetica;fontSize=12;fontColor=default;" vertex="1" parent="wwjlJXxgG5uiKnBPVhm0-95">
          <mxGeometry x="50" y="21.230000000000004" width="2" height="2" as="geometry" />
        </mxCell>
        <mxCell id="wwjlJXxgG5uiKnBPVhm0-41" value="" style="ellipse;whiteSpace=wrap;html=1;aspect=fixed;strokeColor=none;fillColor=#f0f0f0;container=0;align=center;verticalAlign=middle;fontFamily=Helvetica;fontSize=12;fontColor=default;" vertex="1" parent="wwjlJXxgG5uiKnBPVhm0-95">
          <mxGeometry x="57" y="21.230000000000004" width="2" height="2" as="geometry" />
        </mxCell>
        <mxCell id="wwjlJXxgG5uiKnBPVhm0-42" value="" style="ellipse;whiteSpace=wrap;html=1;aspect=fixed;strokeColor=none;fillColor=#f0f0f0;container=0;align=center;verticalAlign=middle;fontFamily=Helvetica;fontSize=12;fontColor=default;" vertex="1" parent="wwjlJXxgG5uiKnBPVhm0-95">
          <mxGeometry x="64" y="21.230000000000004" width="2" height="2" as="geometry" />
        </mxCell>
        <mxCell id="wwjlJXxgG5uiKnBPVhm0-43" value="" style="ellipse;whiteSpace=wrap;html=1;aspect=fixed;strokeColor=none;fillColor=#f0f0f0;container=0;align=center;verticalAlign=middle;fontFamily=Helvetica;fontSize=12;fontColor=default;" vertex="1" parent="wwjlJXxgG5uiKnBPVhm0-95">
          <mxGeometry x="71" y="21.230000000000004" width="2" height="2" as="geometry" />
        </mxCell>
        <mxCell id="wwjlJXxgG5uiKnBPVhm0-44" value="" style="ellipse;whiteSpace=wrap;html=1;aspect=fixed;strokeColor=none;fillColor=#f0f0f0;container=0;align=center;verticalAlign=middle;fontFamily=Helvetica;fontSize=12;fontColor=default;" vertex="1" parent="wwjlJXxgG5uiKnBPVhm0-95">
          <mxGeometry x="78" y="21.230000000000004" width="2" height="2" as="geometry" />
        </mxCell>
        <mxCell id="wwjlJXxgG5uiKnBPVhm0-45" value="" style="ellipse;whiteSpace=wrap;html=1;aspect=fixed;strokeColor=none;fillColor=#f0f0f0;container=0;align=center;verticalAlign=middle;fontFamily=Helvetica;fontSize=12;fontColor=default;" vertex="1" parent="wwjlJXxgG5uiKnBPVhm0-95">
          <mxGeometry x="85" y="21.230000000000004" width="2" height="2" as="geometry" />
        </mxCell>
        <mxCell id="wwjlJXxgG5uiKnBPVhm0-46" value="" style="ellipse;whiteSpace=wrap;html=1;aspect=fixed;strokeColor=none;fillColor=#f0f0f0;container=0;align=center;verticalAlign=middle;fontFamily=Helvetica;fontSize=12;fontColor=default;" vertex="1" parent="wwjlJXxgG5uiKnBPVhm0-95">
          <mxGeometry x="92" y="21.230000000000004" width="2" height="2" as="geometry" />
        </mxCell>
        <mxCell id="wwjlJXxgG5uiKnBPVhm0-47" value="" style="ellipse;whiteSpace=wrap;html=1;aspect=fixed;strokeColor=none;fillColor=#f0f0f0;container=0;align=center;verticalAlign=middle;fontFamily=Helvetica;fontSize=12;fontColor=default;" vertex="1" parent="wwjlJXxgG5uiKnBPVhm0-95">
          <mxGeometry x="99" y="21.230000000000004" width="2" height="2" as="geometry" />
        </mxCell>
        <mxCell id="wwjlJXxgG5uiKnBPVhm0-48" value="" style="ellipse;whiteSpace=wrap;html=1;aspect=fixed;strokeColor=none;fillColor=#f0f0f0;container=0;align=center;verticalAlign=middle;fontFamily=Helvetica;fontSize=12;fontColor=default;" vertex="1" parent="wwjlJXxgG5uiKnBPVhm0-95">
          <mxGeometry x="106" y="21.230000000000004" width="2" height="2" as="geometry" />
        </mxCell>
        <mxCell id="wwjlJXxgG5uiKnBPVhm0-49" value="" style="ellipse;whiteSpace=wrap;html=1;aspect=fixed;strokeColor=none;fillColor=#f0f0f0;container=0;align=center;verticalAlign=middle;fontFamily=Helvetica;fontSize=12;fontColor=default;" vertex="1" parent="wwjlJXxgG5uiKnBPVhm0-95">
          <mxGeometry x="113" y="21.230000000000004" width="2" height="2" as="geometry" />
        </mxCell>
        <mxCell id="wwjlJXxgG5uiKnBPVhm0-50" value="" style="ellipse;whiteSpace=wrap;html=1;aspect=fixed;strokeColor=none;fillColor=#f0f0f0;container=0;align=center;verticalAlign=middle;fontFamily=Helvetica;fontSize=12;fontColor=default;" vertex="1" parent="wwjlJXxgG5uiKnBPVhm0-95">
          <mxGeometry x="120" y="21.230000000000004" width="2" height="2" as="geometry" />
        </mxCell>
        <mxCell id="wwjlJXxgG5uiKnBPVhm0-51" value="" style="ellipse;whiteSpace=wrap;html=1;aspect=fixed;strokeColor=none;fillColor=#f0f0f0;container=0;align=center;verticalAlign=middle;fontFamily=Helvetica;fontSize=12;fontColor=default;" vertex="1" parent="wwjlJXxgG5uiKnBPVhm0-95">
          <mxGeometry x="127" y="21.230000000000004" width="2" height="2" as="geometry" />
        </mxCell>
        <mxCell id="wwjlJXxgG5uiKnBPVhm0-52" value="" style="ellipse;whiteSpace=wrap;html=1;aspect=fixed;strokeColor=none;fillColor=#f0f0f0;container=0;align=center;verticalAlign=middle;fontFamily=Helvetica;fontSize=12;fontColor=default;" vertex="1" parent="wwjlJXxgG5uiKnBPVhm0-95">
          <mxGeometry x="167" y="21.230000000000004" width="2" height="2" as="geometry" />
        </mxCell>
        <mxCell id="wwjlJXxgG5uiKnBPVhm0-53" value="" style="ellipse;whiteSpace=wrap;html=1;aspect=fixed;strokeColor=none;fillColor=#f0f0f0;container=0;align=center;verticalAlign=middle;fontFamily=Helvetica;fontSize=12;fontColor=default;" vertex="1" parent="wwjlJXxgG5uiKnBPVhm0-95">
          <mxGeometry x="174" y="21.230000000000004" width="2" height="2" as="geometry" />
        </mxCell>
        <mxCell id="wwjlJXxgG5uiKnBPVhm0-54" value="" style="ellipse;whiteSpace=wrap;html=1;aspect=fixed;strokeColor=none;fillColor=#f0f0f0;container=0;align=center;verticalAlign=middle;fontFamily=Helvetica;fontSize=12;fontColor=default;" vertex="1" parent="wwjlJXxgG5uiKnBPVhm0-95">
          <mxGeometry x="181" y="21.230000000000004" width="2" height="2" as="geometry" />
        </mxCell>
        <mxCell id="wwjlJXxgG5uiKnBPVhm0-55" value="" style="ellipse;whiteSpace=wrap;html=1;aspect=fixed;strokeColor=none;fillColor=#f0f0f0;container=0;align=center;verticalAlign=middle;fontFamily=Helvetica;fontSize=12;fontColor=default;" vertex="1" parent="wwjlJXxgG5uiKnBPVhm0-95">
          <mxGeometry x="188" y="21.230000000000004" width="2" height="2" as="geometry" />
        </mxCell>
        <mxCell id="wwjlJXxgG5uiKnBPVhm0-56" value="" style="ellipse;whiteSpace=wrap;html=1;aspect=fixed;strokeColor=default;fillColor=none;container=0;strokeWidth=0.2;" vertex="1" parent="wwjlJXxgG5uiKnBPVhm0-95">
          <mxGeometry x="134" y="21.230000000000004" width="2" height="2" as="geometry" />
        </mxCell>
        <mxCell id="wwjlJXxgG5uiKnBPVhm0-57" value="" style="ellipse;whiteSpace=wrap;html=1;aspect=fixed;strokeColor=none;fillColor=#60a917;container=0;" vertex="1" parent="wwjlJXxgG5uiKnBPVhm0-95">
          <mxGeometry x="134" y="24.230000000000004" width="2" height="2" as="geometry" />
        </mxCell>
        <mxCell id="wwjlJXxgG5uiKnBPVhm0-58" value="" style="ellipse;whiteSpace=wrap;html=1;aspect=fixed;strokeColor=none;fillColor=#f0f0f0;container=0;align=center;verticalAlign=middle;fontFamily=Helvetica;fontSize=12;fontColor=default;" vertex="1" parent="wwjlJXxgG5uiKnBPVhm0-95">
          <mxGeometry x="134" y="27.230000000000004" width="2" height="2" as="geometry" />
        </mxCell>
        <mxCell id="wwjlJXxgG5uiKnBPVhm0-59" value="" style="ellipse;whiteSpace=wrap;html=1;aspect=fixed;strokeColor=default;fillColor=none;container=0;strokeWidth=0.2;" vertex="1" parent="wwjlJXxgG5uiKnBPVhm0-95">
          <mxGeometry x="195" y="21.230000000000004" width="2" height="2" as="geometry" />
        </mxCell>
        <mxCell id="wwjlJXxgG5uiKnBPVhm0-60" value="" style="ellipse;whiteSpace=wrap;html=1;aspect=fixed;strokeColor=none;fillColor=#60a917;container=0;" vertex="1" parent="wwjlJXxgG5uiKnBPVhm0-95">
          <mxGeometry x="195" y="24.230000000000004" width="2" height="2" as="geometry" />
        </mxCell>
        <mxCell id="wwjlJXxgG5uiKnBPVhm0-61" value="" style="ellipse;whiteSpace=wrap;html=1;aspect=fixed;strokeColor=none;fillColor=#f0f0f0;container=0;align=center;verticalAlign=middle;fontFamily=Helvetica;fontSize=12;fontColor=default;" vertex="1" parent="wwjlJXxgG5uiKnBPVhm0-95">
          <mxGeometry x="195" y="27.230000000000004" width="2" height="2" as="geometry" />
        </mxCell>
        <mxCell id="wwjlJXxgG5uiKnBPVhm0-63" value="DOWN" style="text;html=1;align=left;verticalAlign=middle;whiteSpace=wrap;rounded=0;fontSize=2;container=0;" vertex="1" parent="wwjlJXxgG5uiKnBPVhm0-95">
          <mxGeometry x="136" y="21.239999999999995" width="10" height="2" as="geometry" />
        </mxCell>
        <mxCell id="wwjlJXxgG5uiKnBPVhm0-64" value="1G" style="text;html=1;align=left;verticalAlign=middle;whiteSpace=wrap;rounded=0;fontSize=2;container=0;" vertex="1" parent="wwjlJXxgG5uiKnBPVhm0-95">
          <mxGeometry x="136" y="24.22999999999999" width="10" height="2" as="geometry" />
        </mxCell>
        <mxCell id="wwjlJXxgG5uiKnBPVhm0-65" value="10G" style="text;html=1;align=left;verticalAlign=middle;whiteSpace=wrap;rounded=0;fontSize=2;container=0;" vertex="1" parent="wwjlJXxgG5uiKnBPVhm0-95">
          <mxGeometry x="136" y="27.22999999999999" width="10" height="2" as="geometry" />
        </mxCell>
        <mxCell id="wwjlJXxgG5uiKnBPVhm0-69" value="DOWN" style="text;html=1;align=left;verticalAlign=middle;whiteSpace=wrap;rounded=0;fontSize=2;container=0;" vertex="1" parent="wwjlJXxgG5uiKnBPVhm0-95">
          <mxGeometry x="197" y="21.25" width="10" height="2" as="geometry" />
        </mxCell>
        <mxCell id="wwjlJXxgG5uiKnBPVhm0-70" value="1G" style="text;html=1;align=left;verticalAlign=middle;whiteSpace=wrap;rounded=0;fontSize=2;container=0;" vertex="1" parent="wwjlJXxgG5uiKnBPVhm0-95">
          <mxGeometry x="197" y="24.239999999999995" width="10" height="2" as="geometry" />
        </mxCell>
        <mxCell id="wwjlJXxgG5uiKnBPVhm0-71" value="10G" style="text;html=1;align=left;verticalAlign=middle;whiteSpace=wrap;rounded=0;fontSize=2;container=0;" vertex="1" parent="wwjlJXxgG5uiKnBPVhm0-95">
          <mxGeometry x="197" y="27.239999999999995" width="10" height="2" as="geometry" />
        </mxCell>
        <mxCell id="wwjlJXxgG5uiKnBPVhm0-72" value="RJ-45" style="text;html=1;align=left;verticalAlign=middle;whiteSpace=wrap;rounded=0;fontSize=2;container=0;" vertex="1" parent="wwjlJXxgG5uiKnBPVhm0-95">
          <mxGeometry x="197" y="18.230000000000004" width="10" height="2" as="geometry" />
        </mxCell>
        <mxCell id="wwjlJXxgG5uiKnBPVhm0-73" value="SFP+" style="text;html=1;align=left;verticalAlign=middle;whiteSpace=wrap;rounded=0;fontSize=2;container=0;" vertex="1" parent="wwjlJXxgG5uiKnBPVhm0-95">
          <mxGeometry x="136" y="18.239999999999995" width="10" height="2" as="geometry" />
        </mxCell>
        <mxCell id="wwjlJXxgG5uiKnBPVhm0-75" value="1" style="text;html=1;align=center;verticalAlign=middle;whiteSpace=wrap;rounded=0;fontSize=3;container=0;" vertex="1" parent="wwjlJXxgG5uiKnBPVhm0-95">
          <mxGeometry x="49.00000000000002" y="23.22999999999999" width="4" height="5" as="geometry" />
        </mxCell>
        <mxCell id="wwjlJXxgG5uiKnBPVhm0-76" value="2" style="text;html=1;align=center;verticalAlign=middle;whiteSpace=wrap;rounded=0;fontSize=3;container=0;" vertex="1" parent="wwjlJXxgG5uiKnBPVhm0-95">
          <mxGeometry x="56.00000000000003" y="23.329999999999984" width="4" height="5" as="geometry" />
        </mxCell>
        <mxCell id="wwjlJXxgG5uiKnBPVhm0-77" value="3" style="text;html=1;align=center;verticalAlign=middle;whiteSpace=wrap;rounded=0;fontSize=3;container=0;" vertex="1" parent="wwjlJXxgG5uiKnBPVhm0-95">
          <mxGeometry x="63.00000000000003" y="23.329999999999984" width="4" height="5" as="geometry" />
        </mxCell>
        <mxCell id="wwjlJXxgG5uiKnBPVhm0-78" value="4" style="text;html=1;align=center;verticalAlign=middle;whiteSpace=wrap;rounded=0;fontSize=3;container=0;" vertex="1" parent="wwjlJXxgG5uiKnBPVhm0-95">
          <mxGeometry x="70.00000000000003" y="23.329999999999984" width="4" height="5" as="geometry" />
        </mxCell>
        <mxCell id="wwjlJXxgG5uiKnBPVhm0-79" value="5" style="text;html=1;align=center;verticalAlign=middle;whiteSpace=wrap;rounded=0;fontSize=3;container=0;" vertex="1" parent="wwjlJXxgG5uiKnBPVhm0-95">
          <mxGeometry x="77.00000000000003" y="23.22999999999999" width="4" height="5" as="geometry" />
        </mxCell>
        <mxCell id="wwjlJXxgG5uiKnBPVhm0-80" value="6" style="text;html=1;align=center;verticalAlign=middle;whiteSpace=wrap;rounded=0;fontSize=3;container=0;" vertex="1" parent="wwjlJXxgG5uiKnBPVhm0-95">
          <mxGeometry x="84.00000000000003" y="23.329999999999984" width="4" height="5" as="geometry" />
        </mxCell>
        <mxCell id="wwjlJXxgG5uiKnBPVhm0-81" value="7" style="text;html=1;align=center;verticalAlign=middle;whiteSpace=wrap;rounded=0;fontSize=3;container=0;" vertex="1" parent="wwjlJXxgG5uiKnBPVhm0-95">
          <mxGeometry x="91.00000000000003" y="23.22999999999999" width="4" height="5" as="geometry" />
        </mxCell>
        <mxCell id="wwjlJXxgG5uiKnBPVhm0-82" value="8" style="text;html=1;align=center;verticalAlign=middle;whiteSpace=wrap;rounded=0;fontSize=3;container=0;" vertex="1" parent="wwjlJXxgG5uiKnBPVhm0-95">
          <mxGeometry x="98.00000000000003" y="23.329999999999984" width="4" height="5" as="geometry" />
        </mxCell>
        <mxCell id="wwjlJXxgG5uiKnBPVhm0-83" value="9" style="text;html=1;align=center;verticalAlign=middle;whiteSpace=wrap;rounded=0;fontSize=3;container=0;" vertex="1" parent="wwjlJXxgG5uiKnBPVhm0-95">
          <mxGeometry x="105.00000000000003" y="23.279999999999987" width="4" height="5" as="geometry" />
        </mxCell>
        <mxCell id="wwjlJXxgG5uiKnBPVhm0-84" value="10" style="text;html=1;align=center;verticalAlign=middle;whiteSpace=wrap;rounded=0;fontSize=3;container=0;" vertex="1" parent="wwjlJXxgG5uiKnBPVhm0-95">
          <mxGeometry x="112.00000000000003" y="23.37999999999998" width="4" height="5" as="geometry" />
        </mxCell>
        <mxCell id="wwjlJXxgG5uiKnBPVhm0-85" value="11" style="text;html=1;align=center;verticalAlign=middle;whiteSpace=wrap;rounded=0;fontSize=3;container=0;" vertex="1" parent="wwjlJXxgG5uiKnBPVhm0-95">
          <mxGeometry x="119.00000000000003" y="23.279999999999987" width="4" height="5" as="geometry" />
        </mxCell>
        <mxCell id="wwjlJXxgG5uiKnBPVhm0-86" value="12" style="text;html=1;align=center;verticalAlign=middle;whiteSpace=wrap;rounded=0;fontSize=3;container=0;" vertex="1" parent="wwjlJXxgG5uiKnBPVhm0-95">
          <mxGeometry x="126.00000000000003" y="23.37999999999998" width="4" height="5" as="geometry" />
        </mxCell>
        <mxCell id="wwjlJXxgG5uiKnBPVhm0-91" value="13" style="text;html=1;align=center;verticalAlign=middle;whiteSpace=wrap;rounded=0;fontSize=3;container=0;" vertex="1" parent="wwjlJXxgG5uiKnBPVhm0-95">
          <mxGeometry x="166.00000000000003" y="23.279999999999987" width="4" height="5" as="geometry" />
        </mxCell>
        <mxCell id="wwjlJXxgG5uiKnBPVhm0-92" value="14" style="text;html=1;align=center;verticalAlign=middle;whiteSpace=wrap;rounded=0;fontSize=3;container=0;" vertex="1" parent="wwjlJXxgG5uiKnBPVhm0-95">
          <mxGeometry x="173.00000000000003" y="23.37999999999998" width="4" height="5" as="geometry" />
        </mxCell>
        <mxCell id="wwjlJXxgG5uiKnBPVhm0-93" value="15" style="text;html=1;align=center;verticalAlign=middle;whiteSpace=wrap;rounded=0;fontSize=3;container=0;" vertex="1" parent="wwjlJXxgG5uiKnBPVhm0-95">
          <mxGeometry x="180.00000000000003" y="23.279999999999987" width="4" height="5" as="geometry" />
        </mxCell>
        <mxCell id="wwjlJXxgG5uiKnBPVhm0-94" value="16" style="text;html=1;align=center;verticalAlign=middle;whiteSpace=wrap;rounded=0;fontSize=3;container=0;" vertex="1" parent="wwjlJXxgG5uiKnBPVhm0-95">
          <mxGeometry x="187.00000000000003" y="23.37999999999998" width="4" height="5" as="geometry" />
        </mxCell>
      </root>
    </mxGraphModel>
  </diagram>
</mxfile>
